<?xml version="1.0" standalone="no"?>
<svg version="1.0" xmlns="http://www.w3.org/2000/svg"
 width="1500.000000pt" height="1500.000000pt" viewBox="0 0 1500.000000 1500.000000"
 preserveAspectRatio="xMidYMid meet">
<metadata>
Created by potrace 1.16, written by Peter Selinger 2001-2019
</metadata>
<g transform="translate(0.000000,1500.000000) scale(0.100000,-0.100000)"
fill="#000000" stroke="none">
<path d="M0 7500 l0 -7500 7500 0 7500 0 0 7500 0 7500 -7500 0 -7500 0 0
-7500z m7708 6350 c89 -2 186 -7 215 -11 28 -4 86 -10 127 -13 41 -3 89 -7
105 -10 17 -3 53 -7 80 -11 89 -10 129 -16 133 -19 4 -4 -9 -7 -253 -56 -352
-69 -807 -203 -1040 -305 -16 -7 -64 -27 -105 -43 -118 -47 -418 -192 -560
-270 -286 -157 -616 -376 -839 -557 -223 -181 -591 -530 -762 -720 -228 -255
-531 -652 -653 -855 -15 -25 -44 -72 -64 -105 -65 -104 -158 -258 -189 -315
-17 -30 -41 -73 -53 -95 -13 -22 -43 -78 -67 -125 -48 -93 -56 -103 -78 -106
-13 -2 -13 1 0 26 13 25 13 27 -6 26 -11 0 -24 -7 -28 -15 -6 -9 -8 -5 -8 13
0 14 3 24 7 21 3 -2 7 2 7 10 0 11 -4 12 -13 4 -11 -9 -13 -2 -10 36 2 25 8
51 15 58 6 6 11 18 11 27 0 9 43 103 95 207 52 105 95 196 95 202 0 6 4 11 8
11 4 0 21 27 37 60 17 33 33 60 38 60 4 0 7 9 7 21 0 11 5 17 10 14 5 -3 10
-1 10 6 0 14 50 92 63 97 4 2 7 10 7 18 0 8 5 14 10 14 6 0 10 7 10 15 0 8 5
15 10 15 6 0 10 5 10 10 0 6 11 28 25 50 26 42 31 55 16 46 -5 -4 -11 -3 -14
1 -2 5 -2 2 -1 -4 2 -7 -1 -13 -6 -13 -6 0 -10 -8 -11 -17 0 -14 -3 -12 -10 5
-12 30 -35 53 -44 44 -5 -4 -5 1 -2 10 4 11 2 17 -6 15 -7 -1 -11 4 -9 11 1 8
-2 11 -8 7 -7 -4 -6 -13 2 -28 10 -20 10 -21 -5 -9 -9 8 -22 12 -29 10 -7 -3
-19 3 -28 12 -8 9 -11 10 -6 3 5 -8 4 -13 -3 -13 -7 0 -9 -4 -6 -10 3 -6 -1
-7 -10 -3 -10 3 -12 8 -7 12 6 3 0 11 -14 18 -17 8 -26 8 -31 1 -3 -6 -1 -8 5
-5 6 5 8 -1 4 -15 -5 -21 -6 -21 -12 -2 -4 10 -5 23 -2 28 3 5 -1 7 -9 4 -10
-4 -15 1 -17 15 -1 15 1 18 7 9 7 -11 10 -10 15 3 3 9 11 13 17 9 8 -4 8 0 0
15 -7 11 -14 21 -17 21 -3 0 -2 -4 1 -10 3 -5 3 -15 -1 -22 -5 -8 -10 -6 -15
8 -7 17 -8 17 -8 1 -1 -10 -6 -15 -11 -12 -7 4 -9 -3 -6 -21 3 -17 2 -24 -4
-18 -6 6 -11 21 -12 35 -1 14 -8 26 -15 26 -8 0 -9 -6 -2 -18 15 -30 10 -32
-13 -6 l-22 24 -18 -21 c-18 -20 -18 -20 -10 -1 5 11 14 30 21 43 11 21 10 22
-8 10 -10 -6 -17 -17 -15 -23 7 -16 -22 -39 -31 -25 -4 6 -1 9 6 8 6 -2 14 3
17 11 3 9 0 11 -7 7 -7 -5 -10 -2 -9 6 2 8 -5 12 -17 11 -11 -1 -14 0 -7 3 10
5 8 12 -8 29 -16 17 -18 23 -7 21 8 -1 22 -7 30 -14 12 -10 16 -10 19 0 3 8 7
6 11 -6 4 -9 3 -15 -2 -11 -5 3 -13 0 -16 -6 -5 -7 -1 -10 10 -7 10 1 20 13
21 25 3 18 0 21 -23 17 -23 -4 -25 -3 -13 11 8 10 9 15 1 15 -6 0 -11 -4 -11
-9 0 -11 -19 -9 -39 3 -9 6 -12 5 -8 -1 8 -12 -12 -30 -32 -29 -8 1 -16 8 -18
16 -4 13 -3 13 6 0 13 -18 14 -1 2 19 -7 11 -10 9 -16 -8 -4 -12 -2 -28 5 -36
8 -9 8 -15 0 -20 -6 -4 -10 -3 -9 2 1 4 0 10 -1 13 -7 14 -6 89 1 84 5 -3 6 2
2 11 -5 13 -7 14 -14 3 -6 -9 -9 -7 -9 8 0 12 -7 25 -16 28 -8 3 -12 2 -9 -4
3 -6 1 -10 -6 -10 -7 0 -9 -3 -6 -7 4 -3 2 -12 -4 -20 -9 -9 -8 -13 0 -13 6 0
15 9 19 20 7 18 9 17 19 -12 10 -28 10 -30 -1 -16 -7 10 -16 15 -20 11 -3 -3
2 -16 11 -27 10 -12 14 -18 9 -14 -5 4 -16 2 -25 -5 -14 -10 -14 -10 -3 5 9
11 10 18 2 23 -5 3 -10 1 -10 -6 0 -7 -3 -10 -6 -6 -4 3 -15 -4 -26 -16 -16
-18 -16 -16 2 11 12 17 19 32 15 32 -3 0 -3 5 1 12 10 16 12 58 2 52 -4 -3 -8
-15 -8 -26 0 -27 -8 -19 -14 13 -2 13 2 30 8 38 9 12 8 13 -3 6 -10 -6 -13 -4
-9 6 3 8 -1 24 -8 34 -12 16 -18 17 -33 8 -14 -9 -18 -8 -18 2 0 8 5 13 11 12
5 -1 10 4 11 11 0 8 9 20 19 28 13 9 15 14 6 14 -8 0 -5 7 8 19 12 10 18 21
14 25 -4 4 -2 6 3 4 6 -2 12 2 14 7 3 6 15 18 28 28 13 10 23 25 23 33 0 8 5
12 10 9 6 -3 10 -2 10 3 0 15 153 177 260 275 52 48 142 123 200 165 58 42
107 79 110 82 3 3 39 28 80 55 41 26 77 51 80 54 7 9 251 165 281 180 14 7 39
24 55 38 16 13 23 22 17 18 -7 -3 -13 -1 -13 4 0 6 -5 11 -11 11 -5 0 -7 -5
-3 -12 4 -7 3 -8 -5 -4 -9 6 -9 11 1 24 11 14 11 14 -7 5 -15 -9 -22 -8 -33 5
-7 10 -10 11 -6 3 5 -10 3 -12 -5 -7 -9 6 -9 11 1 24 10 12 10 14 1 8 -7 -4
-13 -3 -13 2 0 6 -7 12 -15 16 -13 5 -14 2 -4 -15 8 -15 8 -24 0 -32 -6 -6
-11 -7 -11 -3 0 5 -6 3 -14 -3 -10 -9 -16 -8 -26 4 -8 10 -17 12 -24 6 -7 -6
-18 -4 -30 5 -11 8 -14 15 -8 15 7 1 18 2 25 3 6 1 22 -6 34 -17 21 -19 21
-19 32 1 8 16 7 19 -7 19 -36 0 -43 3 -36 16 5 7 0 6 -11 -3 -17 -14 -17 -13
-12 10 4 14 4 19 1 12 -3 -6 -10 -9 -15 -6 -6 4 -6 11 1 20 9 10 8 19 -7 37
-10 13 -24 22 -32 19 -10 -3 -11 0 -3 13 5 10 7 27 5 39 -3 15 -2 17 5 8 7
-11 11 -10 16 4 4 10 4 15 0 11 -4 -4 -13 -2 -21 4 -11 10 -11 15 -1 28 12 14
11 14 -4 2 -10 -7 -15 -18 -11 -24 4 -6 1 -7 -8 -2 -12 7 -12 6 -1 -7 12 -15
12 -51 0 -63 -3 -4 -9 3 -13 14 -3 12 -11 19 -16 16 -5 -4 -9 2 -9 12 -1 14
-4 13 -15 -7 -10 -17 -14 -20 -15 -9 0 9 7 22 15 29 8 7 15 9 15 6 0 -4 6 -1
14 6 8 7 11 18 8 23 -3 6 -2 7 3 3 4 -4 26 8 48 27 22 19 42 33 45 30 2 -2 19
7 37 20 17 14 37 25 43 25 6 0 12 4 14 8 2 4 71 41 153 81 83 40 162 79 176
87 14 7 29 11 33 7 3 -3 6 -1 6 5 0 7 6 12 13 12 8 0 27 6 43 14 107 52 415
174 479 190 6 2 18 6 27 10 9 4 22 9 30 10 7 1 78 23 158 49 127 40 273 82
321 92 8 2 44 10 80 19 35 9 75 18 89 20 14 3 25 5 25 6 0 1 14 4 30 6 17 2
48 8 70 14 22 5 63 12 90 16 28 4 52 8 55 9 3 0 32 5 65 10 33 5 62 9 65 10 3
1 41 5 85 10 44 4 87 9 95 10 8 1 40 5 70 8 30 4 80 9 110 13 149 17 358 21
768 14z m1392 -1231 c52 -5 131 -14 175 -19 44 -6 98 -12 120 -15 59 -6 159
-22 250 -38 44 -8 84 -13 89 -9 5 3 6 0 2 -6 -5 -8 5 -12 33 -12 22 0 43 -4
46 -10 3 -5 17 -10 30 -10 13 0 27 -4 30 -10 3 -5 17 -10 30 -10 13 0 34 -4
47 -9 13 -6 64 -22 113 -37 50 -14 99 -30 110 -34 11 -4 65 -22 120 -40 55
-17 114 -38 130 -45 147 -61 205 -85 209 -85 3 0 30 -11 61 -25 54 -25 73 -28
67 -12 -1 5 2 6 8 2 6 -3 8 -10 5 -15 -3 -5 0 -12 6 -16 8 -4 9 -3 5 4 -4 8 0
12 11 12 15 0 16 2 3 10 -12 8 -12 10 -1 10 8 0 11 7 8 20 -3 13 -1 18 6 13 6
-4 8 -1 5 8 -3 9 3 19 16 25 17 8 23 7 23 -2 0 -7 -5 -12 -10 -11 -5 1 -11 -9
-13 -23 l-5 -25 16 22 c9 13 22 20 30 17 8 -4 15 -1 15 6 0 6 -4 9 -8 6 -5 -3
-8 4 -7 16 2 24 30 44 41 27 4 -8 9 -7 15 2 4 8 14 14 21 14 7 0 13 5 13 12 0
6 4 15 8 20 5 4 7 2 5 -5 -2 -8 8 -18 22 -23 24 -9 24 -9 5 7 -18 15 -18 16
-2 10 11 -3 24 -3 30 1 24 15 35 11 30 -11 -5 -21 -5 -21 10 -1 14 19 15 17
13 -23 -1 -24 1 -45 5 -48 4 -2 6 4 4 16 -2 11 1 22 6 25 5 4 6 12 3 18 -4 7
-4 9 1 5 4 -4 15 -2 23 5 13 10 14 9 8 -1 -4 -7 -9 -25 -11 -40 -2 -21 -1 -23
9 -11 13 18 50 19 67 2 10 -10 17 -9 33 5 19 16 19 16 13 -3 -7 -18 -6 -19 6
-3 8 10 17 16 20 13 4 -3 4 -2 1 3 -3 4 -15 7 -27 7 -13 0 -23 7 -25 18 -2 9
2 17 8 17 6 0 8 -5 4 -12 -4 -6 -3 -8 4 -4 6 3 9 15 7 25 -2 10 3 18 11 18 11
0 11 -3 2 -15 -10 -11 -8 -14 7 -12 39 4 48 1 36 -13 -8 -11 -6 -13 11 -12 12
1 22 9 24 18 1 11 -2 14 -9 10 -8 -5 -8 -2 0 9 7 8 11 17 8 19 -2 3 6 5 19 5
15 0 22 -5 19 -13 -3 -7 2 -16 11 -19 9 -3 14 -10 11 -15 -3 -4 8 -3 26 3 23
8 33 8 38 -1 5 -7 17 -13 29 -14 12 0 19 -3 17 -5 -6 -6 22 -32 34 -32 5 0 22
-16 37 -35 14 -19 31 -32 37 -28 5 3 7 1 3 -5 -7 -12 22 -45 34 -37 4 3 14 -3
21 -13 12 -15 12 -16 -1 -7 -10 6 -9 4 2 -6 9 -9 14 -19 11 -23 -4 -3 5 -6 18
-7 22 0 23 -1 4 -9 -18 -8 -18 -9 5 -9 19 -1 22 -3 10 -10 -8 -6 -18 -7 -24
-4 -5 3 -6 1 -3 -5 4 -5 16 -8 28 -5 14 4 28 -3 47 -26 14 -18 27 -40 28 -49
2 -14 0 -14 -12 2 -14 20 -14 20 -15 0 0 -18 -1 -18 -9 1 -6 14 -9 15 -10 5
-1 -11 -4 -9 -11 5 l-9 20 1 -20 c3 -46 -1 -51 -21 -26 -11 13 -20 18 -20 12
0 -7 -5 -9 -10 -6 -6 4 -8 10 -6 14 3 4 -2 8 -10 8 -11 0 -10 -5 6 -22 11 -12
17 -24 14 -27 -3 -4 2 -5 13 -4 10 2 24 -2 32 -8 9 -7 12 -7 9 -1 -4 6 -2 17
3 25 7 11 8 8 5 -10 -2 -14 -9 -24 -15 -23 -14 4 -14 -9 -1 -25 7 -9 7 -9 -2
-2 -18 15 -32 12 -19 -4 9 -11 9 -16 0 -22 -7 -4 -9 -3 -6 3 4 6 -3 19 -15 29
-12 11 -18 13 -14 7 4 -7 3 -13 -2 -13 -6 0 -12 7 -16 15 -3 8 0 15 7 15 8 0
6 4 -3 10 -11 7 -19 5 -27 -7 -13 -17 -8 -37 8 -28 17 11 9 -14 -10 -32 -10
-10 -22 -29 -26 -41 -5 -17 -12 -22 -26 -19 -20 5 -27 -17 -9 -28 5 -3 8 -11
6 -18 -1 -7 -1 -9 1 -4 3 4 10 4 16 0 9 -5 9 -3 0 8 -9 11 -7 19 8 38 10 13
19 20 19 16 0 -4 7 -2 15 5 9 7 18 10 22 6 3 -3 1 -6 -5 -6 -7 0 -12 -7 -12
-15 0 -9 -5 -21 -10 -28 -6 -7 -19 -23 -30 -36 -11 -13 -20 -21 -20 -17 0 4
-9 2 -19 -4 -14 -7 -22 -7 -27 2 -4 6 -3 8 4 4 6 -3 13 -2 16 3 4 5 -2 8 -11
7 -35 -5 -22 -33 38 -81 34 -28 70 -58 80 -67 11 -10 23 -18 28 -18 5 0 11 -3
13 -8 5 -12 146 -112 158 -112 5 0 10 -4 10 -10 0 -5 7 -6 17 -3 12 5 14 3 8
-7 -5 -8 -4 -11 3 -6 5 3 12 1 14 -6 3 -7 7 -5 11 6 4 10 3 15 -3 11 -6 -3
-13 1 -16 9 -3 9 -11 13 -18 9 -6 -3 -7 -2 -3 2 15 17 36 14 29 -3 -5 -15 -4
-15 12 -2 25 20 66 22 58 2 -3 -10 -1 -13 6 -8 8 5 10 2 5 -10 -5 -14 -8 -13
-19 7 -8 15 -13 18 -14 9 0 -13 -1 -13 -10 0 -11 17 -11 16 -14 -22 -2 -15 1
-25 6 -22 4 3 6 10 3 15 -4 5 1 9 10 9 10 0 13 -5 9 -12 -4 -7 -3 -8 4 -4 12
7 38 -32 34 -51 -2 -7 1 -13 7 -13 10 0 10 18 0 35 -5 8 -5 69 0 83 1 2 17 -6
36 -18 19 -12 35 -20 36 -18 0 2 2 11 4 21 4 24 15 35 15 16 0 -12 2 -12 9 0
12 19 41 23 35 6 -7 -17 -32 -27 -46 -18 -7 3 -8 1 -4 -6 5 -7 16 -9 28 -5 15
4 19 2 16 -7 -3 -8 -13 -13 -23 -11 -10 2 -14 -1 -10 -7 3 -6 -1 -14 -9 -17
-9 -3 -14 -10 -11 -14 3 -5 0 -12 -6 -16 -8 -4 -9 -3 -5 4 11 18 -29 15 -44
-3 -7 -8 -10 -15 -6 -15 16 0 21 3 19 11 -5 17 15 9 22 -8 6 -16 8 -16 26 6
10 13 19 19 19 13 0 -6 8 -9 18 -7 9 1 16 8 14 14 -1 6 5 14 13 17 8 4 15 10
15 16 0 5 -4 7 -8 4 -19 -11 -9 43 11 62 20 18 24 19 41 6 18 -13 18 -14 2
-14 -14 0 -16 -5 -11 -30 4 -20 3 -30 -5 -30 -6 0 -8 6 -4 13 4 6 4 9 -1 5 -4
-4 -15 -2 -24 5 -14 10 -14 10 -3 -5 8 -9 11 -22 7 -27 -3 -6 0 -8 8 -5 8 3
17 -3 21 -13 4 -9 4 -14 0 -10 -4 4 -14 1 -22 -6 -13 -9 -14 -9 -8 1 4 6 3 12
-3 12 -5 0 -13 -4 -16 -10 -3 -5 -1 -10 5 -10 7 0 10 -7 7 -15 -4 -8 -2 -17 2
-20 11 -6 33 20 24 28 -3 4 3 7 15 7 28 0 36 -16 15 -30 -17 -11 -17 -11 0 -6
9 3 18 1 18 -4 2 -14 6 -30 9 -32 8 -9 5 -58 -3 -58 -6 0 -7 -3 -4 -6 4 -4 13
-1 22 6 12 10 13 16 4 26 -6 8 -8 14 -5 14 4 0 4 6 -1 13 -22 35 4 89 38 80
16 -5 18 -8 7 -14 -10 -6 -8 -9 7 -9 15 0 17 -3 7 -9 -8 -4 -14 -12 -14 -17
-1 -18 -10 -34 -17 -29 -4 2 -8 -2 -8 -10 0 -11 4 -12 14 -4 12 11 18 2 14
-23 0 -5 8 -8 19 -8 11 0 20 5 20 11 0 5 -6 7 -12 3 -7 -4 -10 -4 -6 1 4 4 0
14 -10 21 -16 12 -16 14 0 30 17 17 17 17 13 -3 -2 -12 3 -27 10 -33 18 -15
167 -15 220 0 22 6 51 13 65 16 13 3 52 14 85 25 33 10 70 21 82 23 12 3 50
12 85 21 35 9 79 20 98 25 19 5 53 14 75 20 22 6 47 13 55 14 8 2 22 5 30 8
22 8 221 58 245 63 11 1 88 22 170 45 83 23 173 47 200 55 28 8 65 18 83 24
17 5 32 7 32 3 0 -3 5 -1 12 6 7 7 19 12 27 12 9 0 45 9 81 19 36 11 135 38
220 61 85 23 166 46 180 51 14 5 35 10 47 12 12 2 26 6 29 10 4 4 16 7 27 7
12 0 34 4 51 9 52 16 110 32 126 35 16 3 24 6 80 25 19 7 43 14 53 16 9 2 22
7 27 10 5 3 30 9 55 12 l45 5 0 -32 c0 -18 -11 -83 -25 -144 -14 -61 -36 -163
-49 -226 -13 -63 -34 -158 -46 -210 -33 -145 -65 -298 -126 -600 -30 -151 -69
-336 -85 -410 -17 -74 -46 -211 -64 -305 -19 -93 -50 -246 -70 -340 -20 -93
-50 -237 -66 -320 -17 -82 -36 -177 -44 -210 -26 -107 -84 -389 -90 -436 -11
-84 -62 -349 -68 -355 -14 -14 -46 12 -104 84 -76 95 -221 278 -248 313 -11
15 -65 82 -120 150 -54 68 -114 146 -133 174 -18 27 -43 59 -56 70 -12 11 -37
54 -55 95 -19 41 -37 78 -40 82 -4 5 -23 -7 -42 -25 -19 -17 -73 -66 -119
-107 -47 -41 -103 -92 -125 -112 -22 -20 -49 -45 -61 -55 -12 -10 -74 -67
-138 -127 -64 -60 -127 -118 -139 -129 -12 -10 -49 -44 -82 -75 -74 -70 -144
-134 -255 -232 -46 -41 -201 -181 -343 -310 -374 -340 -514 -467 -598 -540
-40 -36 -115 -102 -166 -147 -51 -46 -137 -122 -190 -169 -54 -48 -121 -108
-148 -133 -28 -25 -88 -80 -135 -121 -47 -41 -87 -77 -90 -80 -3 -3 -54 -48
-115 -100 -60 -52 -112 -97 -115 -100 -3 -3 -36 -32 -75 -65 -132 -113 -398
-346 -405 -355 -3 -3 -59 -53 -125 -109 -66 -57 -148 -127 -181 -157 -34 -29
-108 -93 -165 -140 -57 -48 -117 -98 -134 -113 -149 -130 -498 -424 -714 -601
-37 -30 -139 -113 -226 -185 -152 -124 -251 -202 -609 -478 -87 -67 -173 -134
-190 -148 -47 -40 -354 -249 -365 -249 -5 0 -31 25 -57 57 -27 31 -53 61 -59
67 -5 6 -44 49 -85 96 -41 47 -77 87 -80 90 -3 3 -39 43 -80 90 -41 47 -77 87
-80 90 -3 3 -20 23 -39 45 -18 22 -64 72 -100 110 -37 39 -111 121 -165 182
-54 62 -102 113 -107 113 -4 0 -31 -22 -61 -48 -29 -26 -78 -68 -108 -92 -30
-25 -57 -47 -60 -50 -12 -13 -249 -196 -420 -325 -102 -76 -255 -193 -340
-259 -85 -67 -191 -148 -235 -181 -44 -33 -84 -64 -90 -68 -75 -58 -575 -428
-650 -481 -55 -38 -104 -73 -110 -78 -52 -40 -87 -68 -200 -152 -137 -103
-143 -107 -245 -183 -36 -27 -130 -94 -210 -150 -80 -56 -214 -152 -298 -215
-315 -234 -501 -369 -629 -457 -91 -64 -218 -154 -223 -160 -3 -3 -61 -49
-130 -101 -69 -52 -150 -115 -181 -140 -30 -25 -70 -56 -89 -70 -19 -14 -48
-37 -64 -51 -61 -51 -275 -209 -285 -209 -5 0 -11 -5 -13 -11 -2 -7 -9 -10
-16 -8 -7 2 1 18 21 39 18 19 87 96 154 170 66 74 130 142 142 150 12 8 24 23
27 32 3 10 10 16 15 13 5 -4 9 -2 9 4 0 6 9 21 19 33 41 49 619 625 846 843
267 257 1917 1903 2095 2090 63 66 222 230 354 365 133 135 353 360 490 500
542 553 568 580 581 572 10 -6 113 -120 190 -211 22 -26 157 -178 295 -331 47
-52 133 -149 190 -215 58 -66 107 -122 110 -125 14 -13 122 -145 144 -175 14
-19 16 -19 62 25 535 508 1514 1498 2038 2060 82 88 194 207 350 370 83 87
244 261 370 400 27 30 77 84 111 120 33 36 132 144 220 240 88 96 162 177 165
180 22 22 220 239 295 324 6 7 35 39 65 71 44 48 155 171 225 249 16 18 215
236 266 291 61 66 270 295 383 420 50 55 129 139 175 188 l83 88 -83 51 c-46
28 -106 64 -134 80 -27 17 -64 41 -82 54 -17 13 -35 24 -38 24 -4 0 -45 25
-91 55 -47 30 -89 55 -94 55 -4 0 -10 4 -12 8 -4 11 -204 132 -218 132 -5 0
-10 5 -10 10 0 6 -6 10 -14 10 -8 0 -16 3 -18 8 -2 4 -28 20 -58 36 -30 16
-57 32 -60 35 -3 3 -18 13 -35 21 -16 8 -37 23 -47 33 -9 10 -19 14 -22 8 -3
-5 -1 -11 5 -13 6 -2 2 -14 -11 -28 -12 -14 -19 -20 -16 -13 4 6 2 14 -4 18
-5 3 -10 1 -10 -5 0 -7 -7 -9 -16 -6 -8 3 -12 2 -9 -3 3 -5 2 -12 -3 -15 -4
-2 -8 11 -8 29 0 18 4 31 8 29 5 -3 5 -11 1 -17 -5 -8 -2 -8 9 0 8 7 19 9 23
5 5 -4 5 -1 1 6 -4 7 -12 10 -17 7 -5 -4 -9 1 -9 10 0 10 5 13 13 9 6 -4 9 -4
5 0 -3 4 -8 6 -11 4 -3 -1 -15 6 -28 17 l-24 20 20 -24 20 -24 -22 14 c-13 7
-25 20 -28 27 -3 8 0 10 7 6 8 -5 9 -2 5 10 -4 10 -3 15 3 11 6 -3 11 -1 11 4
3 26 4 30 10 36 4 3 10 1 15 -6 5 -8 3 -10 -7 -4 -8 5 -11 5 -7 0 4 -4 2 -17
-4 -29 -6 -11 6 -3 25 19 44 48 46 59 10 51 -16 -4 -44 -11 -63 -16 -48 -11
-308 -80 -345 -90 -16 -5 -69 -19 -117 -31 -49 -13 -88 -28 -88 -34 0 -11 223
-155 240 -155 5 0 10 -4 10 -10 0 -5 7 -10 16 -10 11 0 15 6 11 20 -6 24 12
38 25 19 7 -10 8 -8 5 9 -3 12 -1 20 4 17 5 -4 7 -19 5 -36 -3 -34 -16 -52
-16 -23 0 16 -2 17 -10 4 -13 -20 -12 -30 1 -30 9 0 76 -46 116 -80 7 -5 17
-10 23 -10 5 0 10 -4 10 -10 0 -5 4 -10 8 -10 7 0 371 -237 437 -284 11 -8 43
-30 70 -49 28 -19 50 -41 50 -49 0 -14 -72 -97 -241 -278 -34 -36 -94 -102
-134 -146 -41 -45 -78 -80 -84 -77 -6 2 -29 34 -50 71 -56 96 -226 349 -288
429 -334 431 -606 692 -1021 981 -260 182 -547 349 -749 436 -149 64 -170 72
-223 91 -27 10 -58 24 -69 31 -10 7 -25 10 -32 7 -8 -3 -14 1 -14 9 0 9 -9 14
-22 13 -29 -2 -59 16 -50 30 3 5 -2 3 -12 -5 -16 -12 -19 -12 -26 1 -6 9 -21
14 -39 13 -17 -1 -31 1 -31 6 0 4 -8 7 -17 7 -27 -1 -97 15 -109 24 -6 5 -19
10 -30 12 -10 1 -25 6 -33 11 -8 5 -26 10 -40 11 -43 3 -125 17 -136 24 -5 3
-19 6 -30 7 -34 2 -75 16 -75 25 0 6 -9 5 -20 -1 -11 -6 -21 -8 -21 -5 -3 12
-7 25 -9 33 -1 4 -1 21 -1 37 2 23 0 27 -8 15 -8 -11 -11 -11 -11 -2 0 8 -5
10 -12 6 -7 -4 -10 -4 -6 0 3 4 10 8 15 8 4 0 15 4 24 9 14 7 16 2 14 -37 -3
-50 5 -62 24 -32 9 15 9 18 0 13 -7 -5 -10 -3 -7 6 3 8 1 23 -5 33 -8 16 -6
18 9 12 18 -6 18 -5 2 8 -10 7 -18 19 -18 27 0 11 -2 11 -9 1 -5 -9 -8 -2 -8
20 0 18 2 25 4 16 4 -17 33 -14 33 4 0 5 -5 6 -12 2 -7 -4 -8 -3 -4 5 4 6 12
8 18 5 7 -5 9 -1 5 9 -3 9 -1 19 6 23 7 4 9 4 5 -1 -4 -4 -3 -17 3 -28 7 -12
7 -17 1 -13 -11 7 -10 -19 1 -30 4 -4 2 -13 -4 -20 -7 -8 -7 -14 1 -19 6 -4
10 -3 9 2 -1 4 0 11 1 16 3 8 3 8 14 55 4 18 11 30 16 27 5 -3 12 0 16 6 4 7
3 9 -3 6 -10 -6 -31 12 -48 41 -6 11 -3 12 14 3 11 -7 21 -14 21 -17 0 -3 -5
-2 -12 2 -7 4 -8 3 -4 -5 4 -6 12 -9 17 -5 6 4 4 14 -5 28 -12 19 -12 23 -1
23 8 0 13 -5 12 -11 -1 -6 4 -10 11 -8 8 1 11 -2 8 -7 -4 -5 4 -7 16 -3 12 3
17 7 10 10 -6 2 -12 8 -12 13 0 6 5 7 10 4 6 -3 10 -1 10 4 0 6 5 11 11 11 5
0 8 -4 4 -9 -3 -5 -1 -13 5 -16 6 -4 9 -1 8 7 -2 7 6 14 17 14 35 3 36 4 28
17 -11 18 -12 36 -3 42 5 3 7 -3 5 -13 -2 -11 3 -19 10 -19 8 0 12 4 9 9 -13
20 8 47 39 51 18 2 -51 2 -153 0 -102 -3 -192 -7 -200 -10 -8 -3 -49 -9 -90
-13 -98 -10 -432 -58 -451 -64 -8 -3 -32 -8 -54 -11 -50 -7 -220 -42 -260 -54
-29 -9 -226 -51 -310 -67 -22 -4 -46 -8 -52 -10 -7 -1 -15 2 -19 7 -3 5 -14
14 -26 20 -16 9 -19 8 -13 -2 6 -9 4 -10 -6 -3 -8 5 -17 9 -21 10 -5 1 -11 2
-15 3 -11 2 50 32 122 60 33 13 69 27 80 32 21 9 258 84 380 121 39 12 89 27
112 34 55 17 241 60 318 73 33 6 87 15 120 21 146 26 287 44 540 69 111 11
589 11 705 0z m-1358 -954 c247 -24 466 -62 683 -121 171 -47 380 -118 483
-165 34 -16 64 -29 67 -29 12 0 297 -141 397 -196 262 -145 576 -390 833 -649
176 -177 229 -236 290 -319 16 -23 32 -43 35 -46 3 -3 19 -25 35 -50 28 -42
114 -159 125 -170 3 -3 12 -18 20 -35 8 -16 25 -44 37 -61 22 -29 22 -33 8
-60 -12 -23 -15 -25 -15 -9 0 16 -2 17 -9 5 -6 -8 -7 -18 -4 -24 3 -5 1 -6 -5
-3 -12 8 -11 25 3 47 8 13 7 13 -8 1 -9 -7 -15 -16 -12 -20 2 -4 -6 -18 -18
-32 -12 -14 -18 -19 -13 -12 6 10 5 12 -7 8 -14 -6 -33 -50 -28 -68 1 -5 -3
-6 -9 -2 -7 4 -7 13 1 28 10 22 10 22 -6 2 -9 -11 -20 -19 -24 -18 -5 1 -7 -9
-5 -22 1 -14 -3 -23 -9 -22 -7 1 -11 -7 -9 -18 2 -11 -1 -16 -5 -10 -10 12
-54 15 -47 3 3 -4 -2 -8 -10 -8 -9 0 -16 -8 -15 -17 0 -13 2 -14 6 -4 5 11 7
11 14 0 7 -11 9 -10 9 4 0 19 15 23 26 5 4 -6 3 -8 -3 -5 -6 4 -14 0 -17 -9
-3 -8 -10 -12 -16 -9 -5 3 -10 0 -11 -7 0 -10 -2 -10 -6 0 -2 6 -9 10 -13 7
-5 -3 -12 0 -16 6 -4 8 -3 9 4 5 15 -9 16 16 1 31 -9 9 -16 9 -29 1 -18 -12
-31 -4 -55 34 -22 34 -160 224 -176 242 -23 24 -141 62 -254 82 -168 30 -344
21 -540 -28 -293 -72 -654 -249 -943 -461 -52 -37 -100 -71 -107 -73 -7 -3
-53 17 -101 44 -49 28 -111 60 -139 72 -27 12 -64 29 -82 36 -46 21 -153 54
-172 54 -9 0 -33 6 -54 13 l-37 13 82 100 c265 320 708 676 925 744 37 11 50
11 94 -3 28 -10 55 -17 60 -17 12 0 206 -84 302 -130 45 -22 90 -40 101 -40
14 0 17 -5 13 -21 -4 -17 -3 -19 6 -10 14 14 44 14 49 0 2 -6 18 -12 36 -12
18 -1 32 -5 32 -10 0 -4 4 -6 9 -2 5 3 12 1 16 -5 4 -6 10 -8 14 -6 4 3 8 -1
8 -9 0 -13 -3 -12 -18 1 -17 16 -19 15 -25 -1 -4 -10 -2 -26 5 -37 6 -10 9
-22 7 -27 -3 -4 32 -7 77 -6 45 1 82 3 82 4 0 2 8 4 18 6 9 2 15 -1 11 -6 -3
-5 11 -9 31 -9 22 0 34 4 30 10 -3 6 -1 10 4 10 6 0 11 -6 11 -12 0 -9 4 -8
10 2 9 13 10 13 10 0 0 -13 1 -13 10 0 7 11 10 11 10 2 0 -7 5 -10 10 -7 6 3
10 2 10 -4 0 -5 11 -8 25 -6 14 1 28 -2 31 -7 3 -5 12 -7 20 -4 7 3 17 -2 22
-10 5 -9 11 -15 13 -13 2 1 21 -3 42 -10 21 -7 40 -11 43 -8 8 7 -261 266
-356 344 -81 66 -174 136 -285 215 -133 95 -342 210 -547 302 -100 45 -363
136 -392 136 -24 0 -135 -39 -187 -65 -162 -83 -287 -194 -492 -435 -41 -49
-177 -245 -177 -255 0 -4 -8 -19 -19 -33 -62 -90 -192 -370 -247 -532 -15 -47
-32 -90 -36 -96 -4 -5 -56 -16 -115 -23 -137 -16 -280 -51 -411 -103 -57 -22
-106 -37 -109 -34 -4 3 -1 50 6 104 69 531 243 1112 354 1181 88 54 259 102
602 166 132 25 195 40 273 64 18 5 80 32 138 60 57 28 111 51 118 51 8 0 16 7
20 15 3 8 2 15 -2 15 -4 0 -53 9 -107 20 -237 48 -354 60 -581 60 -278 0 -468
-21 -774 -86 -233 -50 -275 -65 -326 -114 -61 -59 -96 -112 -143 -212 -54
-117 -96 -252 -122 -398 -20 -107 -17 -519 5 -670 28 -199 63 -374 96 -478
l21 -64 -43 -36 c-23 -20 -58 -52 -77 -69 -19 -18 -35 -33 -36 -33 -2 0 -17
45 -35 100 -18 55 -36 103 -41 106 -5 3 -6 10 -3 16 5 7 2 8 -5 3 -9 -5 -10
-10 -2 -18 13 -13 15 -28 4 -26 -21 3 -33 -2 -27 -12 4 -8 9 -7 15 2 5 8 9 9
9 3 0 -18 -13 -24 -27 -13 -7 6 -13 8 -13 4 0 -4 -7 -2 -15 5 -8 6 -19 9 -26
5 -15 -10 -28 13 -30 50 -1 18 -3 23 -6 12 -5 -19 -34 -20 -34 -2 0 6 -10 20
-21 33 -12 12 -18 22 -14 22 5 0 3 7 -4 15 -7 9 -10 18 -6 22 3 3 6 1 6 -6 0
-7 5 -9 13 -5 6 4 9 3 4 -1 -4 -5 -1 -15 7 -24 8 -9 15 -20 15 -26 1 -16 24
-12 28 5 4 13 3 13 -6 0 -10 -13 -11 -13 -12 0 -1 8 -1 19 0 23 1 5 -3 6 -9 2
-5 -3 -10 3 -10 13 0 11 -7 25 -15 32 -8 7 -12 17 -8 23 3 6 1 7 -5 3 -7 -4
-12 -1 -12 9 0 9 -4 14 -9 11 -5 -3 -12 1 -15 10 -6 17 -26 10 -26 -9 0 -7 4
-6 10 3 7 11 9 8 8 -13 -2 -25 -4 -26 -15 -11 -7 10 -13 25 -13 33 0 14 -1 14
-10 1 -9 -15 -11 -13 -14 12 -1 15 -37 20 -52 7 -8 -7 -15 -6 -20 2 -5 8 -3 9
6 4 8 -5 11 -4 7 2 -10 16 -46 23 -54 11 -4 -7 -1 -8 7 -3 8 5 11 4 7 -3 -10
-14 -40 -8 -45 9 -3 11 -2 12 6 1 7 -11 10 -11 15 2 4 9 1 15 -6 13 -7 -1 -11
4 -9 11 1 8 -2 11 -8 7 -6 -3 -8 -10 -5 -15 3 -5 1 -11 -5 -15 -5 -3 -10 -1
-10 6 0 7 -3 9 -6 6 -4 -4 -1 -15 7 -24 7 -10 9 -15 5 -11 -5 4 -16 2 -25 -4
-9 -7 -13 -8 -8 -3 10 12 -33 56 -47 48 -6 -3 -8 -3 -4 2 4 4 1 20 -6 34 -22
42 -33 72 -50 136 -9 33 -21 74 -25 90 -32 110 -33 129 -8 186 29 65 124 215
181 284 22 28 81 97 130 155 49 58 98 116 110 130 57 67 308 411 304 416 -8 7
-202 -72 -283 -115 -339 -182 -728 -474 -930 -697 -159 -175 -204 -232 -211
-269 -13 -71 2 -326 25 -410 32 -121 95 -267 176 -410 115 -204 338 -455 623
-703 125 -109 133 -118 129 -147 -9 -54 -29 -130 -36 -138 -22 -23 -276 195
-526 454 -277 287 -391 460 -483 734 -58 172 -65 199 -80 319 -4 33 -13 61
-19 64 -7 2 -13 -3 -13 -12 0 -9 -3 -16 -7 -16 -5 0 -13 -10 -18 -23 -24 -51
-71 -132 -77 -135 -5 -2 -8 -8 -8 -13 0 -5 -19 -39 -43 -76 -45 -70 -168 -316
-207 -413 -12 -30 -26 -65 -31 -77 -5 -13 -13 -33 -19 -45 -19 -46 -80 -236
-80 -252 0 -9 -4 -24 -9 -34 -6 -9 -12 -30 -16 -45 -3 -15 -9 -26 -13 -23 -4
2 -6 -10 -4 -28 4 -33 -14 -58 -45 -62 -12 -2 -11 2 3 24 17 27 17 27 -3 9
-22 -19 -41 -8 -26 16 11 18 13 38 2 31 -5 -3 -12 1 -15 9 -3 8 -13 13 -23 10
-15 -4 -18 0 -13 23 4 21 2 25 -9 19 -8 -5 -4 3 9 17 12 13 19 27 16 31 -9 8
-35 -13 -29 -22 2 -4 -2 -8 -10 -8 -8 0 -13 5 -12 11 1 6 -4 10 -12 8 -11 -2
-12 0 -3 11 7 8 9 17 5 21 -4 4 1 4 11 0 12 -5 14 -9 6 -14 -8 -5 -8 -10 -2
-14 5 -3 12 1 16 9 3 8 -1 18 -8 22 -7 5 -15 14 -18 22 -2 8 -15 16 -29 18
-18 2 -20 1 -9 -7 12 -7 10 -9 -7 -7 -17 1 -20 5 -12 19 9 17 8 19 -7 17 -4 0
-11 5 -15 13 -7 10 -9 10 -9 -2 -1 -12 -3 -11 -11 3 -6 9 -14 15 -20 12 -5 -4
-6 2 -2 11 4 12 3 15 -5 10 -8 -4 -12 0 -12 11 0 14 -2 15 -9 4 -7 -10 -11 -5
-16 17 -3 18 -3 37 2 44 4 7 9 24 11 38 3 25 65 228 81 265 5 11 15 36 21 55
7 19 19 49 26 65 6 17 20 50 30 75 31 76 179 362 227 437 15 24 27 45 27 48 0
11 221 332 274 399 160 199 388 433 566 582 354 297 834 565 1263 709 527 176
1097 247 1599 200z m-5410 -1509 c11 -5 15 -16 12 -31 -2 -13 0 -26 6 -30 5
-3 7 0 4 8 -3 8 2 19 10 26 12 10 14 8 10 -16 -2 -15 -6 -53 -9 -83 -2 -30 -9
-82 -14 -115 -6 -33 -15 -91 -21 -128 -5 -38 -12 -72 -14 -76 -3 -4 -6 -26 -7
-49 -2 -30 -6 -39 -14 -32 -7 6 -15 7 -18 3 -4 -3 -7 -1 -7 5 0 6 7 15 17 20
13 8 11 10 -11 10 -15 0 -30 -7 -33 -14 -3 -8 -9 -12 -13 -9 -7 4 -7 -9 -1
-33 1 -2 9 1 18 7 12 7 21 5 30 -7 12 -15 12 -15 7 3 -4 15 -3 17 4 6 5 -7 8
-21 7 -30 -2 -9 -4 -29 -4 -44 -1 -20 -5 -26 -13 -21 -10 6 -10 5 -1 -7 9 -12
12 -98 10 -350 -2 -290 11 -623 29 -779 13 -108 19 -212 12 -216 -4 -2 0 -16
7 -31 17 -32 12 -43 -16 -38 -15 3 -19 0 -15 -11 3 -9 1 -12 -4 -9 -6 3 -10
16 -10 28 0 17 -2 19 -9 8 -5 -8 -7 -19 -5 -26 3 -6 -1 -17 -9 -23 -10 -9 -14
-9 -15 1 -3 32 -11 52 -20 50 -6 -2 -9 4 -5 13 5 13 7 13 14 2 5 -8 9 -9 9 -2
0 20 -27 37 -36 23 -5 -8 -3 -9 7 -4 11 7 11 5 -1 -11 -8 -10 -15 -20 -16 -22
-1 -2 -2 10 -3 25 -1 48 -4 63 -13 63 -4 0 -8 20 -8 44 0 25 -4 47 -9 50 -4 3
-12 29 -15 58 -4 29 -11 82 -16 118 -31 236 -40 615 -20 855 20 238 23 260 33
273 6 7 16 11 23 8 7 -3 18 3 26 12 9 11 10 14 1 8 -9 -5 -13 1 -13 19 0 14 4
24 9 20 5 -3 13 0 17 6 4 8 3 9 -4 5 -16 -10 -15 7 1 23 10 10 9 12 -3 9 -8
-2 -15 2 -15 7 -1 6 -5 18 -9 27 -11 25 17 214 41 278 3 8 6 24 7 35 1 11 6
19 13 18 7 -2 10 4 7 12 -4 9 2 18 17 24 22 9 22 10 4 11 l-20 1 20 8 c11 5
23 7 27 5 4 -3 9 0 13 5 3 6 -3 8 -15 6 -11 -2 -22 0 -24 4 -6 9 32 7 56 -3z
m5398 -895 c273 -60 513 -187 704 -370 197 -191 312 -367 390 -602 124 -374
110 -700 -45 -1075 -76 -185 -178 -333 -326 -475 -126 -122 -270 -224 -393
-281 -76 -35 -167 -71 -200 -80 -161 -43 -274 -58 -436 -58 l-150 0 -26 28
c-46 47 -218 266 -218 275 0 5 12 6 28 3 15 -4 51 -10 80 -13 58 -6 59 -4 43
57 -6 19 -15 54 -21 77 -10 39 -15 44 -58 57 -224 67 -360 157 -534 354 -35
40 -70 53 -83 32 -4 -6 -2 -17 5 -25 8 -10 8 -15 -1 -21 -7 -4 -17 -1 -23 7
-15 20 -74 40 -82 28 -9 -16 55 -114 125 -192 l64 -71 -44 -39 c-58 -52 -146
-117 -158 -117 -21 0 -157 169 -212 265 -106 187 -142 282 -188 503 -9 45 -25
239 -25 307 0 116 39 352 75 450 21 57 27 71 84 187 152 309 437 578 749 707
130 54 195 72 376 105 14 2 111 3 215 1 147 -2 212 -8 285 -24z m1920 -503
c47 -5 144 -19 215 -30 72 -11 150 -22 174 -24 39 -3 42 -2 30 13 -13 15 -12
15 7 5 17 -9 24 -9 34 3 7 8 17 15 23 15 5 0 3 -8 -6 -18 -14 -15 -14 -19 -3
-19 8 0 14 5 13 11 -1 6 3 10 9 9 6 -1 11 4 11 12 0 8 -4 12 -8 9 -4 -2 -10 0
-13 4 -3 5 13 9 34 9 33 0 38 -2 28 -14 -9 -11 -8 -13 3 -11 8 2 20 10 26 18
11 13 12 12 6 -4 -4 -13 -3 -17 5 -12 15 9 23 -7 11 -24 -8 -13 -10 -13 -20 0
-9 12 -10 12 -5 -4 7 -20 -29 -70 -123 -168 -56 -59 -68 -65 -99 -48 -22 12
-205 54 -307 71 -48 8 -186 13 -344 15 l-264 1 -43 84 c-24 46 -42 90 -39 97
6 15 507 16 645 0z m3724 -220 c41 -140 69 -252 91 -368 3 -14 9 -44 14 -67 4
-24 7 -43 4 -43 -2 0 0 -8 6 -17 5 -10 12 -63 16 -118 4 -55 9 -107 10 -116
11 -57 16 -239 7 -254 -9 -17 -10 -16 -16 6 -4 13 -11 33 -16 44 -13 33 -60
190 -60 203 0 7 -4 20 -10 30 -5 9 -21 51 -34 92 -33 101 -92 263 -111 306 -8
19 -22 51 -31 72 -10 20 -30 64 -45 96 -32 66 -36 91 -15 103 8 4 29 22 48 38
58 52 99 85 107 85 5 0 20 -42 35 -92z m-890 -873 c122 -407 205 -840 236
-1230 20 -252 4 -779 -29 -985 -11 -64 -36 -228 -48 -305 -3 -22 -9 -45 -14
-50 -4 -6 -9 -27 -11 -48 -1 -27 -5 -34 -14 -26 -9 8 -11 5 -7 -12 5 -17 3
-20 -8 -14 -11 7 -11 5 1 -10 14 -17 13 -18 -2 -12 -10 3 -20 1 -24 -5 -5 -7
-2 -8 7 -3 12 8 12 6 0 -8 -16 -20 -18 -20 -27 -5 -5 7 -3 8 6 3 9 -6 11 -4 5
4 -5 9 -10 10 -18 2 -7 -7 -16 -2 -31 17 -12 14 -21 31 -20 37 3 55 17 214 21
230 2 11 6 43 9 70 2 28 10 95 16 150 20 160 16 830 -6 1040 -30 296 -48 416
-92 632 -47 230 -45 222 -89 403 -39 164 -38 159 -36 176 1 15 125 118 128
107 1 -4 22 -75 47 -158z m-7524 -395 c0 12 3 12 11 -2 8 -14 13 -15 28 -6 18
11 36 9 201 -22 25 -5 108 -18 185 -29 262 -39 296 -45 304 -55 10 -13 51
-123 51 -136 0 -13 -88 -13 -225 0 -221 22 -563 99 -573 129 -2 6 -9 8 -14 5
-7 -4 -8 -2 -4 5 6 8 12 9 20 2 9 -8 13 -7 13 4 0 8 -4 12 -8 10 -12 -8 -17
33 -6 44 8 8 8 11 -1 11 -7 0 -12 5 -12 11 0 5 4 8 9 5 4 -3 6 7 4 22 -3 23
-2 24 6 7 7 -14 10 -15 11 -5z m6476 -352 c-3 -13 -10 -54 -16 -93 -93 -570
-298 -1078 -648 -1615 -173 -264 -527 -657 -772 -856 -176 -143 -445 -331
-604 -422 -34 -19 -77 -44 -96 -55 -45 -26 -308 -157 -315 -157 -3 0 -24 -9
-48 -19 -117 -53 -250 -99 -477 -163 -145 -40 -464 -98 -645 -117 -139 -14
-598 -14 -719 -1 -318 37 -458 64 -701 134 -27 8 -84 24 -125 36 -41 12 -83
26 -92 31 -10 5 -24 9 -31 9 -45 0 -497 200 -497 220 0 5 12 17 28 27 15 10
33 24 41 31 8 8 39 32 70 55 31 23 58 44 61 47 3 3 23 19 45 35 22 16 47 35
55 42 8 6 53 41 100 77 106 83 253 199 260 206 3 3 27 24 55 45 27 22 61 50
75 63 49 46 55 45 96 -6 21 -26 51 -60 66 -77 14 -16 36 -41 48 -55 12 -14 47
-52 78 -85 32 -33 91 -98 132 -145 41 -47 80 -90 85 -96 6 -6 48 -53 95 -104
47 -52 123 -134 169 -183 47 -48 91 -97 99 -108 7 -10 20 -19 29 -19 8 0 54
28 102 63 47 35 120 85 161 111 41 27 77 52 80 55 3 4 37 29 75 56 39 27 77
55 85 62 8 7 119 89 245 183 255 189 389 290 445 335 20 17 52 41 70 55 36 27
266 211 481 386 113 92 437 364 475 399 6 5 55 48 110 95 54 47 126 110 159
140 34 30 99 89 145 130 72 64 112 100 218 198 8 7 17 11 19 8 6 -5 -36 -94
-85 -181 -19 -33 -43 -76 -54 -95 -117 -207 -376 -567 -567 -790 -135 -158
-574 -582 -690 -667 -2 -2 -2 -6 2 -9 15 -16 353 170 579 320 337 222 544 398
739 628 253 298 392 517 542 848 60 133 128 315 152 410 9 36 20 70 23 77 4 6
41 42 83 80 229 204 427 384 453 412 35 37 58 41 52 9z m-6346 -459 c199 -24
309 -44 460 -83 52 -14 106 -28 120 -31 14 -4 34 -10 45 -15 11 -4 62 -23 113
-40 50 -18 92 -36 92 -39 0 -4 -16 -22 -35 -41 l-35 -34 -137 27 c-316 61
-433 72 -768 72 -297 0 -413 -9 -635 -47 -63 -11 -130 -22 -148 -25 -18 -3
-35 -10 -38 -15 -6 -9 43 -177 78 -265 11 -29 18 -58 16 -65 -6 -17 -201 175
-247 242 -18 28 -39 50 -47 50 -20 0 -202 -47 -307 -79 -122 -38 -209 -71
-347 -133 -136 -61 -164 -78 -152 -90 5 -5 85 -25 178 -44 187 -39 203 -42
419 -79 258 -45 355 -59 670 -94 327 -37 455 -48 675 -62 96 -5 175 -11 177
-12 6 -6 -1000 -1007 -1012 -1007 -8 0 -38 11 -67 24 -46 21 -92 40 -185 77
-13 5 -33 13 -45 18 -51 20 -136 51 -190 68 l-58 18 0 65 c0 54 5 74 30 117
16 28 42 60 58 71 65 47 212 104 377 147 70 18 481 100 599 120 61 10 30 24
-69 29 -198 12 -751 15 -930 6 -251 -13 -509 -39 -534 -54 -6 -4 10 -45 40
-103 43 -86 66 -149 109 -298 17 -60 24 -290 12 -369 -17 -109 -26 -106 -41
14 -43 329 -165 549 -400 725 -149 113 -293 174 -466 201 -314 48 -580 -31
-907 -272 -62 -45 -64 -45 -128 -41 -106 8 -323 27 -350 32 -14 2 -94 4 -177
4 -134 1 -153 3 -153 17 0 9 20 57 44 108 24 50 56 118 70 150 30 65 31 46
-16 222 -8 28 -12 56 -10 62 2 8 34 12 96 12 118 0 387 17 491 31 129 17 317
58 463 100 17 5 47 13 65 18 48 13 307 90 342 102 39 12 232 69 270 79 17 4
53 15 80 24 56 18 244 74 290 86 17 5 64 18 105 29 41 12 116 32 165 46 623
174 1140 249 1640 238 88 -2 198 -8 245 -14z m-2602 -1343 c185 -51 354 -189
436 -353 51 -104 62 -146 70 -258 6 -85 5 -86 -14 -15 -49 177 -125 298 -249
391 -115 88 -246 138 -400 152 -92 9 -258 -23 -361 -71 -119 -54 -258 -179
-320 -286 -36 -64 -45 -90 -70 -201 -17 -78 -18 -79 -25 -42 -16 82 21 246 77
345 40 69 129 172 184 213 78 57 193 109 288 131 96 21 298 18 384 -6z m8819
-71 c4 -4 2 -5 -6 0 -10 6 -12 4 -6 -4 5 -9 11 -9 17 -3 6 6 17 8 25 5 11 -4
10 -8 -4 -20 -10 -8 -12 -11 -4 -7 9 5 12 1 8 -12 -3 -11 -11 -39 -17 -63 -17
-66 -149 -359 -176 -391 -7 -9 -41 -70 -75 -135 -296 -570 -656 -1061 -1117
-1522 -234 -235 -417 -393 -631 -549 -154 -111 -297 -201 -451 -281 -47 -25
-87 -48 -90 -52 -3 -3 -14 -8 -25 -9 -11 -2 -27 -10 -36 -18 -8 -8 -20 -14
-25 -14 -6 0 -19 -8 -30 -18 -10 -10 -46 -30 -79 -46 -33 -15 -77 -36 -97 -46
-33 -16 -40 -17 -52 -5 -10 11 -16 11 -18 3 -7 -20 -28 2 -24 25 1 12 6 21 9
20 4 -2 13 -3 20 -3 6 0 4 -5 -5 -11 -10 -5 -18 -14 -18 -19 0 -6 9 -2 20 7
15 14 17 20 7 32 -10 12 -9 13 9 3 24 -13 46 1 37 25 -6 16 17 14 30 -2 4 -5
6 1 5 15 -2 16 2 24 10 23 6 -2 12 2 12 9 0 6 3 9 6 6 3 -4 1 -17 -6 -30 -10
-21 -10 -21 3 -5 11 14 16 15 21 5 3 -7 3 -1 0 15 -4 17 -2 27 6 27 6 0 8 -6
4 -12 -4 -8 -3 -10 2 -5 5 5 9 13 9 18 0 5 5 10 10 11 6 0 16 8 23 17 10 12
12 13 6 1 -4 -8 3 -5 15 8 13 13 80 60 149 106 326 212 707 521 977 791 314
313 453 470 654 740 125 168 411 599 411 621 0 3 11 21 24 42 53 81 165 300
331 645 15 31 31 58 36 58 5 1 18 2 28 3 11 0 22 4 26 8 8 8 32 4 42 -7z
m-5984 -1504 c20 -9 34 -20 30 -24 -6 -6 13 -11 20 -4 8 7 48 -43 42 -53 -4
-7 2 -9 18 -6 19 3 24 0 22 -17 -1 -29 -24 -69 -34 -62 -5 2 -11 14 -14 25 -3
11 -1 18 4 14 5 -3 9 -13 10 -22 0 -14 2 -14 6 -2 3 8 11 19 17 23 7 5 3 7 -9
5 -12 -2 -19 2 -17 10 4 21 -6 13 -33 -25 -14 -21 -25 -32 -25 -25 0 7 -5 10
-10 7 -7 -4 -7 -12 0 -25 12 -22 0 -33 -20 -19 -10 6 -11 9 -2 9 6 0 12 5 12
10 0 12 -22 9 -32 -5 -4 -6 -8 -2 -8 9 0 12 5 16 14 13 8 -3 20 1 26 8 7 8 16
12 21 9 16 -9 10 3 -8 17 -14 12 -16 12 -8 0 6 -11 4 -13 -8 -8 -12 4 -14 2
-10 -10 5 -13 3 -13 -14 -5 -27 15 -33 7 -23 -29 6 -20 5 -27 -2 -23 -6 4 -17
-1 -25 -11 -7 -11 -13 -14 -13 -7 0 6 -6 9 -14 6 -8 -3 -17 -1 -20 4 -3 5 5 8
18 7 14 -2 27 5 36 19 12 19 12 20 -3 8 -9 -8 -22 -10 -28 -6 -8 4 -9 3 -5 -4
10 -16 -7 -15 -23 1 -10 8 -12 8 -7 0 3 -6 2 -14 -4 -18 -6 -4 -7 -11 -4 -17
4 -7 2 -8 -5 -4 -6 4 -9 12 -6 17 4 5 2 9 -4 9 -5 0 -13 -5 -16 -11 -5 -7 -13
-4 -26 7 -17 16 -18 15 -14 -5 2 -12 0 -19 -6 -16 -5 4 -9 14 -9 23 0 15 -2
15 -10 2 -8 -12 -10 -10 -11 10 0 23 -1 23 -8 5 -5 -11 -6 -24 -3 -29 3 -5 0
-6 -6 -2 -6 4 -9 13 -6 21 4 10 0 13 -15 10 -12 -2 -19 0 -16 6 4 5 1 9 -5 9
-17 0 44 58 110 105 30 22 62 47 70 56 30 32 60 35 113 10z m-503 -408 c0 -13
-3 -13 -15 -3 -12 10 -15 10 -16 -1 0 -10 -2 -11 -6 -1 -2 6 -9 12 -15 12 -6
0 -6 -6 2 -15 7 -8 16 -13 20 -10 5 3 12 0 16 -6 4 -8 11 -3 20 12 7 13 22 25
33 25 11 1 18 -2 15 -7 -2 -4 -12 -5 -21 -2 -15 6 -16 5 -3 -9 8 -9 17 -12 18
-7 2 5 10 9 18 9 8 0 11 7 8 18 -5 13 -4 14 4 3 6 -8 7 -24 3 -35 -8 -24 -8
-83 1 -91 3 -4 5 7 4 23 -2 27 4 31 32 23 9 -3 17 3 14 12 -2 6 4 5 12 -3 17
-13 22 -25 7 -16 -5 3 -15 -1 -22 -10 -11 -14 -10 -15 6 -12 14 2 20 -3 21
-17 0 -11 4 -28 8 -37 4 -9 9 -23 10 -32 1 -8 5 -18 9 -22 3 -4 4 6 1 22 l-4
29 20 -25 c11 -14 20 -30 20 -37 0 -7 8 -16 18 -22 13 -7 14 -13 5 -22 -13
-13 -6 -42 9 -33 7 4 6 9 -1 13 -6 4 -2 12 12 20 20 13 21 13 8 -2 -15 -19 -1
-23 16 -6 9 9 11 8 9 -4 -3 -24 -54 -68 -59 -53 -3 7 -16 12 -29 11 -12 -1
-27 0 -32 3 -6 3 -19 7 -30 8 -32 4 -79 15 -101 23 -11 5 -38 14 -60 20 -56
18 -228 83 -240 91 -5 4 -23 10 -38 14 -16 4 -27 12 -25 19 2 7 49 42 103 79
92 61 135 78 135 55 0 -5 7 -4 15 3 8 6 19 9 24 6 5 -4 12 -2 16 4 9 14 25 3
25 -17z"/>
<path d="M7255 9000 c-191 -28 -338 -85 -506 -196 -307 -202 -487 -507 -528
-892 -6 -51 -8 -99 -4 -107 5 -15 15 -17 138 -19 l70 -1 6 95 c20 294 166 573
389 739 128 95 280 160 430 183 41 7 78 16 81 20 3 5 5 48 5 96 -1 97 2 94
-81 82z"/>
<path d="M7720 8878 l0 -95 73 -28 c139 -53 257 -132 401 -268 70 -66 83 -74
104 -66 13 5 21 5 18 0 -3 -5 0 -11 8 -14 15 -6 12 14 -13 76 -12 32 -15 68
-3 52 15 -21 81 -65 97 -65 10 0 13 -5 9 -12 -4 -7 -3 -8 4 -4 37 23 -128 220
-268 318 -119 85 -308 176 -399 194 l-31 7 0 -95z"/>
<path d="M7334 8639 c-4 -6 -6 -48 -5 -93 1 -44 -2 -86 -6 -92 -5 -6 -37 -20
-72 -32 -136 -46 -222 -125 -260 -239 -25 -74 -27 -139 -6 -208 38 -123 131
-202 335 -280 198 -76 226 -90 263 -126 35 -34 44 -61 37 -109 -7 -51 -88 -89
-191 -90 -108 0 -208 35 -338 117 -29 19 -57 31 -62 26 -19 -19 -99 -195 -93
-205 9 -14 130 -90 179 -113 22 -10 76 -28 120 -40 l80 -21 -4 -91 c-2 -73 0
-92 12 -99 9 -5 61 -8 116 -6 l100 3 3 97 3 97 30 9 c183 56 268 130 314 275
14 44 14 148 0 192 -47 146 -147 225 -374 293 -118 36 -198 73 -232 108 -36
37 -40 113 -8 148 69 78 259 63 418 -32 40 -24 72 -37 77 -32 5 5 18 38 30 74
12 35 30 81 40 102 13 27 15 40 6 47 -29 23 -160 82 -229 102 l-76 22 -3 101
-3 101 -97 3 c-65 2 -99 -1 -104 -9z"/>
<path d="M8475 7779 c-47 -12 -55 -22 -55 -77 0 -55 -35 -215 -65 -297 -116
-322 -446 -582 -797 -630 l-46 -6 -4 -92 c-2 -51 -2 -98 0 -106 4 -10 20 -12
71 -7 250 26 506 158 702 363 192 201 319 479 344 755 6 70 5 77 -13 87 -30
16 -93 21 -137 10z"/>
</g>
</svg>
